/* XPM */
static char *e467be6322d64a0db74f8d3a0614c29a[] = {
/* columns rows colors chars-per-pixel */
"32 32 256 2 ",
"   c #071829",
".  c #111E2A",
"X  c #141F27",
"o  c #071F36",
"O  c #0F212F",
"+  c #15222B",
"@  c #1C262B",
"#  c #1C282F",
"$  c #0B253A",
"%  c #09233A",
"&  c #122434",
"*  c #1B2B34",
"=  c #142B3B",
"-  c #1A2E3C",
";  c #132838",
":  c #1D313D",
">  c #222A2C",
",  c #2D312C",
"<  c #34352A",
"1  c #36392F",
"2  c #3A3B2D",
"3  c #212F34",
"4  c #202F3B",
"5  c #273337",
"6  c #2B3435",
"7  c #23333C",
"8  c #2A363A",
"9  c #2A383F",
"0  c #2F3835",
"q  c #333934",
"w  c #3B3E34",
"e  c #343D3B",
"r  c #403F2F",
"t  c #403E30",
"y  c #3E4134",
"u  c #36433E",
"i  c #3D443C",
"p  c #564D2E",
"a  c #5C512F",
"s  c #454634",
"d  c #494631",
"f  c #454836",
"g  c #4C4B36",
"h  c #41473C",
"j  c #454A3B",
"k  c #4D4D3A",
"l  c #514D33",
"z  c #4D513D",
"x  c #555136",
"c  c #5B5433",
"v  c #54533A",
"b  c #5A5539",
"n  c #5D593B",
"m  c #4A442B",
"M  c #635834",
"N  c #645D3B",
"B  c #695D35",
"V  c #6F6336",
"C  c #67623D",
"Z  c #6D633B",
"A  c #746334",
"S  c #796735",
"D  c #7D6935",
"F  c #726639",
"G  c #75693E",
"H  c #796D3F",
"J  c #7E713E",
"K  c #022543",
"L  c #042945",
"P  c #032B4A",
"I  c #0A2A43",
"U  c #142F41",
"Y  c #0A324D",
"T  c #1B3444",
"R  c #173749",
"E  c #002F58",
"W  c #043353",
"Q  c #023659",
"!  c #03395C",
"~  c #0C3E5B",
"^  c #183D53",
"/  c #233943",
"(  c #2C3D42",
")  c #213541",
"_  c #023C63",
"`  c #003F6A",
"'  c #0D445F",
"]  c #19485F",
"[  c #1E4555",
"{  c #394846",
"}  c #3A504D",
"|  c #284A56",
" . c #2F5359",
".. c #3B5555",
"X. c #365659",
"o. c #2B4348",
"O. c #01446A",
"+. c #03466A",
"@. c #114565",
"#. c #154C67",
"$. c #15546D",
"%. c #1C5269",
"&. c #034B71",
"*. c #004C7B",
"=. c #074872",
"-. c #124E70",
";. c #03527B",
":. c #035A7F",
">. c #0C5677",
",. c #195776",
"<. c #275966",
"1. c #355F66",
"2. c #1D657F",
"3. c #256379",
"4. c #3E737D",
"5. c #434B42",
"6. c #494E41",
"7. c #455249",
"8. c #4C5A4B",
"9. c #4C574A",
"0. c #5B5C43",
"q. c #545C4C",
"w. c #545744",
"e. c #505E53",
"r. c #485F56",
"t. c #625E40",
"y. c #59624A",
"u. c #49655E",
"i. c #586753",
"p. c #5F725F",
"a. c #646142",
"s. c #6C6645",
"d. c #6A6846",
"f. c #716642",
"g. c #726C42",
"h. c #777248",
"j. c #6D785F",
"k. c #6A7258",
"l. c #717557",
"z. c #7B7A51",
"x. c #787B5A",
"c. c #496964",
"v. c #4A6969",
"b. c #57776A",
"n. c #4B6E70",
"m. c #537B70",
"M. c #4B7C7A",
"N. c #6D7B64",
"B. c #647A6B",
"V. c #717D62",
"C. c #787F61",
"Z. c #896D2C",
"A. c #836D34",
"S. c #8A6F30",
"D. c #8D7535",
"F. c #8D763C",
"G. c #877238",
"H. c #947732",
"J. c #947935",
"K. c #9A7C34",
"L. c #957B3B",
"P. c #997F3B",
"I. c #877543",
"U. c #897C44",
"Y. c #8A7E4A",
"T. c #847A47",
"R. c #887E50",
"E. c #7E8358",
"W. c #6D866D",
"Q. c #788B65",
"!. c #788665",
"~. c #6A8973",
"^. c #728D78",
"/. c #7E9678",
"(. c #9C813E",
"). c #A18135",
"_. c #A2843B",
"`. c #A7893D",
"'. c #AB8A3A",
"]. c #B28F3A",
"[. c #B4903B",
"{. c #8E834A",
"}. c #87814D",
"|. c #938143",
" X c #9A8443",
".X c #93844A",
"XX c #9C8D4D",
"oX c #9E8C47",
"OX c #87855C",
"+X c #958E59",
"@X c #918650",
"#X c #8F915C",
"$X c #95915F",
"%X c #A98D42",
"&X c #A08B4A",
"*X c #AA9148",
"=X c #B59342",
"-X c #B49648",
";X c #BD9C4B",
":X c #A69455",
">X c #AC9750",
",X c #B69E58",
"<X c #B3A25A",
"1X c #9A9967",
"2X c #848F67",
"3X c #A69D66",
"4X c #98A175",
"5X c #C2A04A",
"6X c #C3A657",
"7X c #CEBB6B",
"8X c #CCBA6F",
"9X c #DCC16C",
"0X c #CBC077",
"qX c #D8CC7F",
"wX c #E1C876",
"eX c #E1C56B",
"rX c #035682",
"tX c #045B8C",
"yX c #19698C",
"uX c #166588",
"iX c #0E6C93",
"pX c #066998",
"aX c #1C769A",
"sX c #256A83",
"dX c #367782",
"fX c #227390",
"gX c #0173A4",
"hX c #0478AB",
"jX c #1378A0",
"kX c #0179B3",
"lX c #097CB0",
"zX c #35889B",
"xX c #1B85A9",
"cX c #0583B8",
"vX c #288AA5",
"bX c #238AB1",
"nX c #4E8D8D",
"mX c #4495A3",
"MX c #46A3B8",
"NX c #64A2A0",
"BX c #008DCE",
"VX c #0B90C9",
"CX c #0692D2",
"ZX c #1198D1",
"AX c #82AE97",
"SX c #89A98E",
"DX c #B4B780",
"FX c #BDC083",
"GX c #B3C594",
"HX c #D1CF88",
"JX c #C3D195",
"KX c #E1DF92",
"LX c #E3D88D",
"PX c #EAE395",
"IX c #F2EF9A",
"UX c None",
/* pixels */
"UXUXUXUXUXUXUXUXUXUXUXUXUXUXUXUXUXUXUXUXUXUXUXUXUXUXUXUXUXUXUXUX",
"UXUXUXUXUXUXUXUXUXUXUXUXIX8X_.H.J.P.`.=XUXUXUXUXUXUXUXUXUXUXUXUX",
"UXUXUXUXUXUXUXUXUX=X,X1Xl.g , > , , < m A L.-XUXUXUXUXUXUXUXUXUX",
"UXUXUXUXUXUXUXUXJ.M w @ X .   y k q   + # , a P.6XUXUXUXUXUXUXUX",
"UXUXUXUXUXUX).A.w X 5 6.l.z 2 F d V q w.k.h @ , G 8XUXUXUXUXUXUX",
"UXUXUXUXUX).A > > . w h.8.{.l B g V b @Xe.R.8 O @ f.LXUXUXUXUXUX",
"UXUXUXUX).V * & t s N R.C.9.% R ( U % i.N.+Xw.t 1 @ x.PXUXUXUXUX",
"UXUXUXH.G.0 * t s V i T T K L L P P K L | ) b G b 6 3 OXwXUXUXUX",
"UXUXUXJ.w 8 4 l g v T K U U L L W Q Y R P K u k b g + , :XUXUXUX",
"UXUXH.Z 3 8 8 b s ) K P u D } P W R F C Y L K i Z g O * b ,XUXUX",
"UXUXD.h O 1 D C K K K P R D.J ~ ! 7.).7.Q W P K ; B M > > F.UXUX",
"UXZ.V 8 e x e N K P W Q Q 0.'...' F.(.] ! Q W P U x t t . p ;XUX",
"UXS.v ( 7 c G { 9 G h...! <.`.z.u.[.p.+.>.e.T.d.R g M l @ < %XUX",
"UXS.i 8 ; d w ) P.h.s.Y.%.>.z.=XXX>X2.rX~.:XW.$Xk.: c 0 @ , P.UX",
"UXA.5 5 w A h a.h.! ! %.;.rX4.7XeXAXcXfXFXn.*.%.] Y x b * + G.UX",
"UXD 8 4 l 0 n 3Xc._ %.sXyXpXjXJXIXMXkXmXGXiXrX,.] [ v l 1 + S UX",
"UXS > 4 s M w.DXn.! ^.HXSXcXvX0XeXNXBXmX4XpXyX+X>Xv.v v q O A UX",
"UXA.e ) * a ) OXN.O.$.W./.gX~.5X;X1XZXbX+XaXpX3.Y. .v x * * G.UX",
"UXA.e 4 ; a t.w.XXc.1.}.m.aXoX#XW.[.mXCXQ.Q.4.b.U.} N 7 - 8 P.UX",
"UXS.w.4 - x h 9.8.|.{.j.iXm.].nXvX*X2XVXxXQ.{.{.r.w.n k * w `.UX",
"UXZ.f.4 - g N q.E @.,.tXuX.XXXxXcXQ.].zXcXcXuX-.] n z s * l [.UX",
"UXUXF.{ 5 6 x 0.^ _ =.*.c.[.B.gXcXdX].Q.pXrX;.+.[ V k - * F.UXUX",
"UXUXH.f.6 o I f.s..._ _ h.{.3.pXiXiXE.{.2.:.#.8.C e : 3 x -XUXUX",
"UXUXUXP.5.; ; 0.{ s.^ Q ' @.&.;.:.:.$.$.&.+.8.} z u 7 8 XXUXUXUX",
"UXUXUXJ.I.0 3 h a.g.y.B.n.~ _ ` &.&.&.<.m.X.g.C j : * OX9XUXUXUX",
"UXUXUXUX_.f.; 3 - U h.V.p.e.^ 8.r.|  .!.p.}.o./ - - k.PXUXUXUXUX",
"UXUXUXUXUX_.f.4 ; 4 5.l.OXg.G b f J Z OXj.0.- : ; a.HXUXUXUXUXUX",
"UXUXUXUXUXUX).I.e 4 4 U { $ e C B z - } { : - 8 F 6XUXUXUXUXUXUX",
"UXUXUXUXUXUXUXK.(.f.o.U & $ 5 / o./ T / T 8 v D.].UXUXUXUXUXUXUX",
"UXUXUXUXUXUXUXUXUX%X,X1XN.7.e 8 ( { i l V J.).UXUXUXUXUXUXUXUXUX",
"UXUXUXUXUXUXUXUXUXUXUXUXKX0X XL.J.P.).).).UXUXUXUXUXUXUXUXUXUXUX",
"UXUXUXUXUXUXUXUXUXUXUXUXUXUXUXUXUXUXUXUXUXUXUXUXUXUXUXUXUXUXUXUX"
};
