/* XPM */
static char *fe1b1be1b58f4a81e0aa906c026ee093[] = {
/* columns rows colors chars-per-pixel */
"64 64 256 2 ",
"   c #021325",
".  c #02162B",
"X  c #04192D",
"o  c #0B1C2C",
"O  c #0A1824",
"+  c #121E28",
"@  c #031B33",
"#  c #091E32",
"$  c #011E3A",
"%  c #001631",
"&  c #000F20",
"*  c #14212C",
"=  c #1A252C",
"-  c #1B2428",
";  c #0D2234",
":  c #03223D",
">  c #0B243A",
",  c #0B263C",
"<  c #132534",
"1  c #162935",
"2  c #1B2A34",
"3  c #142A3B",
"4  c #1B2D3A",
"5  c #142637",
"6  c #1C323C",
"7  c #16303F",
"8  c #0F212F",
"9  c #232B2C",
"0  c #262C2A",
"q  c #2C312C",
"w  c #33362D",
"e  c #383A2D",
"r  c #222E34",
"t  c #253136",
"y  c #2B3434",
"u  c #24333B",
"i  c #2B363A",
"p  c #2C3A3C",
"a  c #29393B",
"s  c #313633",
"d  c #343B35",
"f  c #3A3D34",
"g  c #323C3C",
"h  c #3A3E3A",
"j  c #06121F",
"k  c #403F2D",
"l  c #3C433B",
"z  c #3B4239",
"x  c #2D403F",
"c  c #48422B",
"v  c #544B2C",
"b  c #5E532F",
"n  c #4B4C3B",
"m  c #464837",
"M  c #534E33",
"N  c #5C5435",
"B  c #54533B",
"V  c #5B563A",
"C  c #4E513F",
"Z  c #69592C",
"A  c #735E29",
"S  c #645A34",
"D  c #675C37",
"F  c #7A642C",
"G  c #6D6239",
"H  c #746333",
"J  c #796632",
"K  c #7D6A34",
"L  c #7A6B3A",
"P  c #73673B",
"I  c #032543",
"U  c #032946",
"Y  c #0C2B43",
"T  c #032B4B",
"R  c #082844",
"E  c #122E43",
"W  c #192F40",
"Q  c #08314D",
"!  c #173447",
"~  c #012D51",
"^  c #033354",
"/  c #02355A",
"(  c #033A5C",
")  c #0B3856",
"_  c #153D54",
"`  c #2C3C42",
"'  c #243844",
"]  c #323F42",
"[  c #023C63",
"{  c #033B66",
"}  c #103F60",
"|  c #001F42",
" . c #1B4759",
".. c #0A435F",
"X. c #2B434A",
"o. c #2B4449",
"O. c #344244",
"+. c #394948",
"@. c #284854",
"#. c #3C5759",
"$. c #365053",
"%. c #024166",
"&. c #01446B",
"*. c #024A6D",
"=. c #0C4769",
"-. c #164963",
";. c #024B74",
":. c #024D7A",
">. c #024573",
",. c #03527B",
"<. c #035578",
"1. c #165876",
"2. c #1A566E",
"3. c #275467",
"4. c #345C65",
"5. c #23576E",
"6. c #1C617C",
"7. c #386974",
"8. c #316674",
"9. c #444D46",
"0. c #495449",
"q. c #565A46",
"w. c #445855",
"e. c #545C52",
"r. c #625E42",
"t. c #576556",
"y. c #546552",
"u. c #666649",
"i. c #776D45",
"p. c #75724B",
"a. c #66745B",
"s. c #7A7956",
"d. c #6D6D51",
"f. c #4F726C",
"g. c #6D7B65",
"h. c #856A2B",
"j. c #8E722E",
"k. c #93752E",
"l. c #96782F",
"z. c #836D33",
"x. c #826F39",
"c. c #8C7333",
"v. c #8A753B",
"b. c #8D793D",
"n. c #857238",
"m. c #957933",
"M. c #9B7C32",
"N. c #937C3C",
"B. c #957A37",
"V. c #A07F32",
"C. c #877946",
"Z. c #947E41",
"A. c #947F44",
"S. c #867951",
"D. c #7B815B",
"F. c #788664",
"G. c #718C73",
"H. c #56867A",
"J. c #9C823E",
"K. c #9F8137",
"L. c #A38335",
"P. c #A98636",
"I. c #AC8937",
"U. c #A4853A",
"Y. c #AB8B3B",
"T. c #A5893D",
"R. c #B28E3A",
"E. c #B88F36",
"W. c #B6913A",
"Q. c #B9933C",
"!. c #B99037",
"~. c #AF903F",
"^. c #9A8542",
"/. c #978548",
"(. c #858558",
"). c #968A56",
"_. c #9A955E",
"`. c #938B4C",
"'. c #A38A43",
"]. c #A98D45",
"[. c #AB9247",
"{. c #B59442",
"}. c #B99642",
"|. c #BC9945",
" X c #BC9B4C",
".X c #B3994D",
"XX c #A79858",
"oX c #B79C55",
"OX c #BDA257",
"+X c #BFA04A",
"@X c #959564",
"#X c #86906E",
"$X c #A29F6B",
"%X c #ACA467",
"&X c #B7AB68",
"*X c #B5B174",
"=X c #97A27A",
"-X c #C29D46",
";X c #C7A34C",
":X c #C6A758",
">X c #D4B35C",
",X c #D0AC53",
"<X c #CCB667",
"1X c #D7BA64",
"2X c #C9B169",
"3X c #D7C778",
"4X c #D5C272",
"5X c #E4CC75",
"6X c #E7D37C",
"7X c #E1C36A",
"8X c #035582",
"9X c #035C8B",
"0X c #045A84",
"qX c #065B8D",
"wX c #06638B",
"eX c #17678A",
"rX c #036395",
"tX c #03669B",
"yX c #056A98",
"uX c #04719E",
"iX c #137197",
"pX c #2D768E",
"aX c #026CA3",
"sX c #0372A4",
"dX c #0676AA",
"fX c #047DB2",
"gX c #027EBA",
"hX c #1379A3",
"jX c #467C82",
"kX c #2F8198",
"lX c #0485BB",
"zX c #1B85AC",
"xX c #2D8DAB",
"cX c #518B8E",
"vX c #6E9789",
"bX c #509EA5",
"nX c #67A4A1",
"mX c #0489C5",
"MX c #0398D9",
"NX c #0993CF",
"BX c #14A3D8",
"VX c #8AB199",
"CX c #B2BA85",
"ZX c #BAC38A",
"AX c #ABC79E",
"SX c #81C2B7",
"DX c #C9CB8A",
"FX c #DADA90",
"GX c #E7DB86",
"HX c #E5DA8C",
"JX c #E8E696",
"KX c #FBF49B",
"LX c #F1E58F",
"PX c #FDFBA4",
"IX c #F7F0B0",
"UX c None",
/* pixels */
"UXUXUXUXUXUXUXUXUXUXUXUXUXUXUXUXUXUXUXUXUXUXUXUXUXUXUXUXUXUXUXUXUXUXUXUXUXUXUXUXUXUXUXUXUXUXUXUXUXUXUXUXUXUXUXUXUXUXUXUXUXUXUXUX",
"UXUXUXUXUXUXUXUXUXUXUXUXUXUXUXUXUXUXUXUXUXUXUXUXUXUXUXUXUXUXUXUXUXUXUXUXUXUXUXUXUXUXUXUXUXUXUXUXUXUXUXUXUXUXUXUXUXUXUXUXUXUXUXUX",
"UXUXUXUXUXUXUXUXUXUXUXUXUXUXUXUXUXUXUXUXUXUXUXUXUXUXGX<X}.W.W.Q.}.W.W.}.}.|. XUXUXUXUXUXUXUXUXUXUXUXUXUXUXUXUXUXUXUXUXUXUXUXUXUX",
"UXUXUXUXUXUXUXUXUXUXUXUXUXUXUXUXUXUXUXUXUXUX3XJXPXPXGX<XU.M.c.z.z.B.c.l.U.I.W.}.|. XUXUXUXUXUXUXUXUXUXUXUXUXUXUXUXUXUXUXUXUXUXUX",
"UXUXUXUXUXUXUXUXUXUXUXUXUXUXUXUXUXUXUX^.:X3XGXHX3X#Xd.n c s 9 j t s - 0 w c Z h.V.R.Q. XOXUXUXUXUXUXUXUXUXUXUXUXUXUXUXUXUXUXUXUX",
"UXUXUXUXUXUXUXUXUXUXUXUXUXUXUXUXUXj.P.;X:XXXi.f - O e O 0 O g & h O s 9 - + + j h c A U.{. X:XUXUXUXUXUXUXUXUXUXUXUXUXUXUXUXUXUX",
"UXUXUXUXUXUXUXUXUXUXUXUXUXUXUXUXV.R.I.C.n = q + - O q & & O l O 9.. g o     O + d 8 - q Z U.W. X2XUXUXUXUXUXUXUXUXUXUXUXUXUXUXUX",
"UXUXUXUXUXUXUXUXUXUXUXUXUXUXj.I.R.c.w + s * = 0 0 O f   & O n M S.N i.<   = k 9 = + w = 0 q A P.-X2XUXUXUXUXUXUXUXUXUXUXUXUXUXUX",
"UXUXUXUXUXUXUXUXUXUXUXUXUXl.R.P.b s X   * g 5 . t 0.h     * z.n.H H B.D o o # 3 p m = 0 + 9 = e v.;X1XUXUXUXUXUXUXUXUXUXUXUXUXUX",
"UXUXUXUXUXUXUXUXUXUXUXUXL.R.n.c = e * 0 h i r.@XDX*XXXm w Z U.N O * G ^.9.2 n &XDX*Xp.s w * q = = P :X5XIXUXUXUXUXUXUXUXUXUXUXUX",
"UXUXUXUXUXUXUXUXUXUXUXL.W.c.9 = k = 9 * = h ].(.9.q.OX].c.n.U.V o 1 K U.v.B.{.%Xw.s.%XS.t w * % o * N <XLXIXUXUXUXUXUXUXUXUXUXUX",
"UXUXUXUXUXUXUXUXUXUXL.W.J w < o * 9 * @ % S A.9.% ` ).C.8 o D b.v.v.B.C > i '.(.W $ q.XXO.# % o q 9 * q.3XKXIXUXUXUXUXUXUXUXUXUX",
"UXUXUXUXUXUXUXUXUXK.E.G r t X # q 2 < @ 2 x. XS.+.(.oX0.$ $ , g l l p R $ > i.@X#.' %X:X0.$ @ 9 0 9 - - r.HXIXUXUXUXUXUXUXUXUXUX",
"UXUXUXUXUXUXUXUXM.E.x.o . t 5 r c H n.D B.P i.&XDX=X9.R U I T T T I I $ $ | W S.DXCX&X).Z.B C G M r + 0 # s.LXKXUXUXUXUXUXUXUXUX",
"UXUXUXUXUXUXUXh.R.B.d t . r 5 q F v H U.D : R ` ` R | ~ T I T U T T R U I I I : ` t.#., h K.~.L N.B # * o * (.GXGXUXUXUXUXUXUXUX",
"UXUXUXUXUXUXUXP.U.N i u i y h A m @ f K r.I I $ | I | U : : U U T ~ / ~ I R I I R I I I 5 b.v.g f B.q.y 9 r r _.7X3XUXUXUXUXUXUX",
"UXUXUXUXUXUXl.R.M o i u h u w H g : u v.9.$ I I : : : : U : Q U R [ ( Q T T U U T U U U , n.q.$ # n v.; 8 - + q oX1XUXUXUXUXUXUX",
"UXUXUXUXUXh.P.b.r s i i g $ q J z.l z.D Y | I R Q Y E ! Y Q U Q ^ ^ ^ T Q Q _  .^ U U : : z J.O.m x.v.5 0 9 o y V :X2XUXUXUXUXUX",
"UXUXUXUXUXM.P.m i i i h # $ g z.D z.M R T R R T 7 H K F q.Q Q U ^ ^ ^ ^ V x.K u.Q Q U U U : m ^.C.R.P % % . * i h ^.;XUXUXUXUXUX",
"UXUXUXUXF P.z.+.O h 2 2 4 ] v.D 5 E | | | T ^ T Q b K.j.n. .U Q ~ ) ~ o.j.M.l.q.^ Q T U U : : a m M x.u @ = w * = N }.:XUXUXUXUX",
"UXUXUXUXj.L.r.2 . . . k c.U.U.` | I I $ I U U T Q o.l.K.m.y.^ ( ^ ( ^ r.K.V.c.@.^ ^ ^ Q U : : : $ > Z z.D h . + - + c.-XUXUXUXUX",
"UXUXUXA V.b.t 9.u . 2 z.N c.U.0.| I R T U U T Q ^ ..P L.K.n. ...( (  .B.P.P.u.^ ( ^ ^ ^ U U : U $ > Z k.z.z.m q + w M ~.:XUXUXUX",
"UXUXUXh.L.M p u ] ` c x.5 i L i.I I T T Q Q ~ ^ ^ ^ 9.L.L.P.w.( %.( y.P.I.U.$.( ( ^ ^ ^ T ^ U U I 6 K S z v D X . O - M. XUXUXUX",
"UXUXUXk.B.9.2 ] ` i Z n > E N.9.: I T T T ^ ( ( ( ( ) v.R.I.p...( ..J.E.W.p.*.%.%.( ( ( / ~ T T T 3 J p @ 9 K 2 + s o J }.UXUXUX",
"UXUXUXl.L * ] 4 0.2 Z P P V Z.E : R o.q.q.$. .( ( ( %.q.R.W.Y.4.*.y.W.W.Y.4.=.*.&.%...@.y.u.$.! U : b V y m K f w + - c I.:XUXUX",
"UXUXF M.V 0.i O.` @ q c.V.B.m | 7 G P.W.W.~.C.@.%.*.*.2.J.W.W.F.wXb.W.W.(.*.*.;.rX1.d.~.Q.Q.{./.$.U p z.J c.z.t = 9 + e L. XUXUX",
"UXUXh.l.q.r O.i ] @ # H V 4 $ E L W.R.U.K.P.!./.3.;.<.<.d.!.R.XXf.W.Q.}.f.,.<.,.zXF.-X;XoXoX+X,XoX@.I z F c.m @ 9 = 9 h c. XUXUX",
"UXUXh.B.s O.; 0.' % 2 z.u $ $ B W.~.q.o._ $.J.[.#.,.0X,.3.[.|.-X|.-X;X_.iX9X0X,.f.,X,Xg.eXhX7.XX<Xw.U I 3 H p @ * q + e F }.UXUX",
"UXUXj.v.+ ] # 5 2 w J m.C > W Z.Q.u.( ( ( [ @.4.;.,.;.8X0X(.,X,X>X>X1XnXgXdXrXwX%X5X#X:.;.:.>.3.f.^ T U 3 H D 2 o * . O Z }.UXUX",
"UXUXj.n.+ g O.0.r F A x.n.+.] ;X[. .^ ( [ %.&.;.8X8X8XwXtXjX4X5X6XGXDXBXmXfXrXjXJXJXpX8X:.;.;.{ %./ ~ Y S c.c.P t d = = v W.:XUX",
"UXUXk.C.] * o ; q H r r D q.u.1X#X^ { [ %.{ ;.qXrX,.0XyXuXiXZXKXKXKXSXmXfXdXaXnXKXAXqXqX,.:.>.:.[ / ^ ` z.N N H m . . O v R.OXUX",
"UXUXk.i.2 ] i 9.h H ; $ S q.(.LXG./ { { =.8.6.pXpXwX9XsXdXsXVXKXKXKXbXgXgXgXlXvXGXVXaXqX8X8X5.6.3.3.=.o.P E > b n s = - c {.OXUX",
"UXUXk.i.O   # 5 0 J h 9.H C =XPXG.[ / [ 8.FXJXJXFXcXyXBXlXzX3XGXGX6XVXmXmXmXmXvX7XvXyXtXrXpX%XOXOXOXjX$.P ! 7 S m o .   e R.OXUX",
"UXUXk.L o u i 9.u Z z.c.z.' #XKX#X/ ( { 5.3XGX6X6XbXuXmXlXcX1X1X1X>X2XxXMXMXmXvX,XvXdXrXrX6.].-X|.-XjX-.K G D K m y 9 1 c W.OXUX",
"UXUXj.C.h u # 1 # = b c.p | t.5X=X{ { %.=.7.7.@X>XcXdXsXiX_.,X;X;X;X;XnXMXMXmXjX}.@XhXsXrXqX7.4.i.{.t.{ B j.k.D 3 8 . 1 S W.OXUX",
"UXUXh.Z.p 4 ` 9.` % = L W | ] :X:X4.&.;.;.,.9X(.+XkXsXsXjXQ.|.|.[.}.!.XXNXMXMXzX'.{.kXsXtXaXtX8Xd.{.#./ E H C E # a 8 y Z Q.UXUX",
"UXUXh.N.r ] 4 4 , % 2 z.P O.R S.;X).2.{ :.,.7.~.XXiXfXdXD.!.W._.cXI.R.{.nXMXMXmXD.!.).iXtXrX9X8.U.'. .) O.L W $ 5 y i 9 z.}.UXUX",
"UXUXh.U.h p # ] 5 @ b k.c.Z.#.+.~.Q.).t.w.a.J.!.F.rXuXkXY.W.W.cXlX).E.E.@XBXMXMXxXT.W.).f.7.a.J.!.d.@.r.c.c.9.$ p ' 6 i c.{.UXUX",
"UXUXA M.q.] @ 0.3 < J B m V S.~ q.T.Q.{.R.W.Q.(.eXtXyXD.!.W.XXzXmXH.R.R.].bXMXNXmXH.Y.!.}.Q.E.E.A.3.q.J H z.L , % 4 u s L.}.UXUX",
"UXUXUXl.i.e.< ] < o H O.$ 4 A.@.^ +.i.Z.'.`.a.eXrXaXpXT.W.W.G.lXmXzX'.R.{.#XmXmXmXlXkXG.`.'./.a.-.-.x.+.' z J p y 1 4 M R. XUXUX",
"UXUXUXj.Z.+.. ] ; % M D W 9.B.9./ / { -.1.qX8XqXwXrXg.W.W.[.xXlXmXlXF.R.R.~.xXlXlXlXlXBXzXeX1.:.%.$.K @.Q n G 2 w 8 X H W.UXUXUX",
"UXUXUXh.U.u.# O.# i h J H L.Z._ ~ ~ { >.qX:.:.qX9X6.J.W.!.F.dXlXfXlXkXT.W.W.G.lXuXuXuXuXrX8X:.{ ..o.K L 9.J m y = 4 - B.{.UXUXUX",
"UXUXUXA V.S.p ] 2 h u h J B.C.) ~ ~ / >.>.>.>.8X0Xt.E.R.~.jXuXuXuXlXdXD.E.R.[.kXsXuXyX9X8X;.<.%.( _ K l.k.G 3 1 @ y N W.|.UXUXUX",
"UXUXUXUXk.].0.r g 2 h # > u C.q.X.-.{ { { >.>.>.2.J.R.E.(.iXsXyXuXuXuX7.~.R.~.G.yXuX9X0X<.&.%.( / o.K V m 6 > t 2 < v.}.UXUXUXUX",
"UXUXUXUXF P.S.] r i # $ | | V W.A.A.#.{ { { >.>.y.R.W.R.f.9XyXuXuXuXuXiX`.W.E.`.eX9X0X8X;.%. .y.q.G V U : g u 2 w M |.|.UXUXUXUX",
"UXUXUXUXUXl.].e.] r # $ # | P J.u.h A.#./ { { } p.J.J.(.1.0X9XuXwXwXwXuXf.^.T.`.7.0X,.;.%.3.n.G H z.+.: 6 ' u q = C.;X|.UXUXUXUX",
"UXUXUXUXUXh.I.).] h ; % $ $ L e.! ~ 9.A.) / / { =.-.-.=.<.,.<.,.wX<.wXwX<.1.1.2.1.<.;.&.-.b.q.Q m G C Y a ` 4 o B :X;XUXUXUXUXUX",
"UXUXUXUXUXUXl.{.d.r 4 5 $ 4 C A.X.! i.A._ ~ ~ / { >.&.&.&.*.;.<.<.<.<.<.<.<.<.*.*.*.%.[ 0.C.@.^ ! H n 6 ] 3 u z OX>XUXUXUXUXUXUX",
"UXUXUXUXUXUXA P.'.0.s f # d ` D A.r.Y.].+.~ _ 4.} { { { %.%.%.%.*.<.<.*.*.*.*.%.%.=.( ( 0.J.p.o.H V 6 x , 6 8 _.7X>XUXUXUXUXUXUX",
"UXUXUXUXUXUXUXj.{.A.h * f 2 d ` B x.i.D A.s.*XDXZXg.) / ( ( ( ..%.%.*.*.*.%.-.H.CX%Xf.w.^.b.v.K S 7 , 7 # 4 a.GX5XUXUXUXUXUXUXUX",
"UXUXUXUXUXUXUXUXm.}.S.< r 2 ; d W : | R 9.;X*X#.a.$Xs.^ ^ ( )  . . ...%.%. ._.*XG.(.+XJ.0.Q x a 6 O.7 6 # d.JXLXUXUXUXUXUXUXUXUX",
"UXUXUXUXUXUXUXUXUXL.{.d.# % f 4 > E ` | W XXa.! T a.'.@.^ o.i.^.J.^.y...^ u._.3.^ y.`.p.T U Y Y : , x 6 l GXPXJXUXUXUXUXUXUXUXUX",
"UXUXUXUXUXUXUXUXUXUXU.|.d.5 4 4 5 4 u h E S.$Xt.@._.{.Z.u.N.b.x 7 B J.u.u.].OXa.Q w.'.q.: O.u +.: @ 8 n 4XKXJXUXUXUXUXUXUXUXUXUX",
"UXUXUXUXUXUXUXUXUXUXUXP.}.S.5 # # $ r 2 d ` u.CXDX*Xi.e b J.v.2   v U.c.b S oX$XZX&XC.W , u ` 3 a 8 m 2X6XFXUXUXUXUXUXUXUXUXUXUX",
"UXUXUXUXUXUXUXUXUXUXUXUXV.{.A.q.4 # g 5 g > % 5 0.e.# @ @ H v.B M S J.a X @ +.D.a.6 p 6 t u 4 5 2 L :X1X<XUXUXUXUXUXUXUXUXUXUXUX",
"UXUXUXUXUXUXUXUXUXUXUXUXUXM.Q.].r.5 W ' W ` > $ 2 p $ $ 6 6 G P /.L C 7 : 6 O.$ : : ' E 4 3 5 z z. X;XUXUXUXUXUXUXUXUXUXUXUXUXUX",
"UXUXUXUXUXUXUXUXUXUXUXUXUXUXj.P.Q./.q.i ; 5 u > i $ $ 5 p u 9.Y w., $.o.o.' O.O.l W u E 5 p S L.Q.{.UXUXUXUXUXUXUXUXUXUXUXUXUXUX",
"UXUXUXUXUXUXUXUXUXUXUXUXUXUXUXUXM.R.{.).9.u W > ' @ < r 3 i 5 : +.: ! , > ' ' 3 ' , u p b K.W.I.B.UXUXUXUXUXUXUXUXUXUXUXUXUXUXUX",
"UXUXUXUXUXUXUXUXUXUXUXUXUXUXUXUXUXh.L. X2X%XF.9.` @ r # p < 0.# o.' w.+.+.; g @ d n K U.W.I.l.UXUXUXUXUXUXUXUXUXUXUXUXUXUXUXUXUX",
"UXUXUXUXUXUXUXUXUXUXUXUXUXUXUXUXUXUXUXc..X<XGXHXDX=Xg.9.9.5 O.; 3 +.x n e M D L K.R.R.P.M.UXUXUXUXUXUXUXUXUXUXUXUXUXUXUXUXUXUXUX",
"UXUXUXUXUXUXUXUXUXUXUXUXUXUXUXUXUXUXUXUXUXUX&XFXKXPXKX3X.XJ.Z.b.b.N.'.T.T.R.W.R.I.M.h.UXUXUXUXUXUXUXUXUXUXUXUXUXUXUXUXUXUXUXUXUX",
"UXUXUXUXUXUXUXUXUXUXUXUXUXUXUXUXUXUXUXUXUXUXUXUXUX*X4X&X{.I.I.I.I.I.P.L.L.l.j.UXUXUXUXUXUXUXUXUXUXUXUXUXUXUXUXUXUXUXUXUXUXUXUXUX",
"UXUXUXUXUXUXUXUXUXUXUXUXUXUXUXUXUXUXUXUXUXUXUXUXUXUXUXUXUXUXUXUXUXUXUXUXUXUXUXUXUXUXUXUXUXUXUXUXUXUXUXUXUXUXUXUXUXUXUXUXUXUXUXUX",
"UXUXUXUXUXUXUXUXUXUXUXUXUXUXUXUXUXUXUXUXUXUXUXUXUXUXUXUXUXUXUXUXUXUXUXUXUXUXUXUXUXUXUXUXUXUXUXUXUXUXUXUXUXUXUXUXUXUXUXUXUXUXUXUX"
};
