/* XPM */
static char *_d91f8f852e64d60f7983996d2d8c26e[] = {
/* columns rows colors chars-per-pixel */
"16 16 186 2 ",
"   c #2D322E",
".  c #2D332E",
"X  c #32362E",
"o  c #36382E",
"O  c #373A2F",
"+  c #2B3333",
"@  c #2B3432",
"#  c #2D3532",
"$  c #2E3837",
"%  c #2B373B",
"&  c #2B383A",
"*  c #2D3838",
"=  c #2D3839",
"-  c #29383C",
";  c #2B3B3D",
":  c #2C3A3C",
">  c #2E3F3F",
",  c #313731",
"<  c #313A37",
"1  c #343A36",
"2  c #353B36",
"3  c #353D36",
"4  c #3F3F30",
"5  c #393D34",
"6  c #313A38",
"7  c #373F3C",
"8  c #3F4235",
"9  c #3C4137",
"0  c #3C4337",
"q  c #3F4337",
"w  c #33403E",
"e  c #37413E",
"r  c #3B4339",
"t  c #3E433B",
"y  c #3E453A",
"u  c #39423D",
"i  c #3C443D",
"p  c #404132",
"a  c #464633",
"s  c #474633",
"d  c #454635",
"f  c #4B4732",
"g  c #4A4A36",
"h  c #4E4D37",
"j  c #454A3B",
"k  c #414A3D",
"l  c #41493F",
"z  c #464A3C",
"x  c #464C3D",
"c  c #4A4B38",
"v  c #484B3A",
"b  c #4F4F3A",
"n  c #4A4F3D",
"m  c #504D35",
"M  c #565034",
"N  c #555136",
"B  c #50513A",
"V  c #555139",
"C  c #55543B",
"Z  c #53513D",
"A  c #52523C",
"S  c #53553C",
"D  c #635732",
"F  c #655A35",
"G  c #6F5F32",
"H  c #615A3C",
"J  c #655C3C",
"K  c #705F32",
"L  c #756637",
"P  c #7A6530",
"I  c #7A6633",
"U  c #786634",
"Y  c #7E6B37",
"T  c #7D6C3C",
"R  c #0D2D44",
"E  c #0A2E48",
"W  c #122E43",
"Q  c #0D3046",
"!  c #08314E",
"~  c #143143",
"^  c #143246",
"/  c #173748",
"(  c #0C3550",
")  c #073856",
"_  c #233C48",
"`  c #18445E",
"'  c #1E4958",
"]  c #1F505F",
"[  c #364745",
"{  c #3B4742",
"}  c #3A4846",
"|  c #3E4C45",
" . c #35494C",
".. c #3F564E",
"X. c #2C4D57",
"o. c #21465B",
"O. c #375554",
"+. c #3F5B5B",
"@. c #0F5C7B",
"#. c #155673",
"$. c #135276",
"%. c #195772",
"&. c #235464",
"*. c #295C6C",
"=. c #205C76",
"-. c #366266",
";. c #3D6269",
":. c #326671",
">. c #386F7C",
",. c #404E4A",
"<. c #455043",
"1. c #465547",
"2. c #4F5341",
"3. c #4E5343",
"4. c #495346",
"5. c #425248",
"6. c #46534A",
"7. c #4F594C",
"8. c #545641",
"9. c #575842",
"0. c #5B5C41",
"q. c #5D5E46",
"w. c #515A49",
"e. c #415E5A",
"r. c #505D51",
"t. c #566149",
"y. c #52604D",
"u. c #58614B",
"i. c #5C604A",
"p. c #576C5C",
"a. c #5E6B58",
"s. c #636145",
"d. c #646346",
"f. c #6A6444",
"g. c #606548",
"h. c #686749",
"j. c #606450",
"k. c #626A51",
"l. c #646E55",
"z. c #657057",
"x. c #6F7254",
"c. c #66775D",
"v. c #73785A",
"b. c #777959",
"n. c #416060",
"m. c #416C65",
"M. c #517066",
"N. c #5C7360",
"B. c #5F7864",
"V. c #45797B",
"C. c #806D3B",
"Z. c #816E3B",
"A. c #806E3C",
"S. c #897236",
"D. c #8E7535",
"F. c #857138",
"G. c #80703F",
"H. c #87753E",
"J. c #8E773A",
"K. c #927A3E",
"L. c #857544",
"P. c #89794A",
"I. c #937C41",
"U. c #48817F",
"Y. c #778A67",
"T. c #7C8D65",
"R. c #7A8E69",
"E. c #618175",
"W. c #838050",
"Q. c #8C8753",
"!. c #819B79",
"~. c #9CA979",
"^. c #096385",
"/. c #136488",
"(. c #10729B",
"). c #36808A",
"_. c #2D87A3",
"`. c #3293B0",
"'. c #4E8386",
"]. c #518783",
"[. c #458A94",
"{. c #45929C",
"}. c #638F87",
"|. c #7C9D83",
" X c #9FBA91",
".X c None",
/* pixels */
".X.X.X.X.X.X.XJ.S..X.X.X.X.X.X.X",
".X.X.X.XY d.x O p o N Z..X.X.X.X",
".X.X.XD . z q.m N 8.i., f..X.X.X",
".X.XF + s 2. .W ^ _ r.A 5 b..X.X",
".XU 2 9 y R > / ( [ E w h @ P..X",
".XV 2 C ~ ! 1.t.5.g.) Q t 4 s .X",
"P t 9 v 0.r.&.W.Q.:.M.z.| s X I.",
"K 6 d h.e.*./.|. X_.}.=.X.g . Z.",
"G = p x.;.E.[.!.~.`.'.>.l.n # T ",
"U 7 3 9.k.N.V.T.R.{.].B.u.x 6 K.",
".XZ $ 2.o.$.c.U.).R.(.#.5.0 g .X",
".XT % e 7.` e.@.^.m.#.O.k : L..X",
".X.XJ = <.a.e.' ] -.p.<.; v..X.X",
".X.X.XH = } 4.b S w.6.- d..X.X.X",
".X.X.X.XG.j.,.w { i b L .X.X.X.X",
".X.X.X.X.X.X.XH.F.D..X.X.X.X.X.X"
};
